<?xml version="1.0" encoding="UTF-8" standalone="no"?>
<!-- Svg Vector Icons : http://www.onlinewebfonts.com/icon -->

<svg
   xmlns:dc="http://purl.org/dc/elements/1.1/"
   xmlns:cc="http://creativecommons.org/ns#"
   xmlns:rdf="http://www.w3.org/1999/02/22-rdf-syntax-ns#"
   xmlns:svg="http://www.w3.org/2000/svg"
   xmlns="http://www.w3.org/2000/svg"
   xmlns:sodipodi="http://sodipodi.sourceforge.net/DTD/sodipodi-0.dtd"
   xmlns:inkscape="http://www.inkscape.org/namespaces/inkscape"
   version="1.1"
   x="0px"
   y="0px"
   viewBox="0 0 980 715"
   enable-background="new 0 0 1000 1000"
   xml:space="preserve"
   id="svg2"
   inkscape:version="0.91 r13725"
   sodipodi:docname="28b25dc379e086ed61d16ca6028b8298.svg"
   width="980"
   height="715"><defs
     id="defs12" /><sodipodi:namedview
     pagecolor="#ffffff"
     bordercolor="#666666"
     borderopacity="1"
     objecttolerance="10"
     gridtolerance="10"
     guidetolerance="10"
     inkscape:pageopacity="0"
     inkscape:pageshadow="2"
     inkscape:window-width="1855"
     inkscape:window-height="1056"
     id="namedview10"
     showgrid="false"
     inkscape:zoom="0.944"
     inkscape:cx="453.79468"
     inkscape:cy="373.41369"
     inkscape:window-x="1985"
     inkscape:window-y="24"
     inkscape:window-maximized="1"
     inkscape:current-layer="svg2" /><metadata
     id="metadata4"> Svg Vector Icons : http://www.onlinewebfonts.com/icon <rdf:RDF><cc:Work
     rdf:about=""><dc:format>image/svg+xml</dc:format><dc:type
       rdf:resource="http://purl.org/dc/dcmitype/StillImage" /><dc:title></dc:title></cc:Work></rdf:RDF></metadata><g
     id="g6"
     transform="translate(-10,-140.5)"><path
       d="m 961,144.5 -922,0 c -16,0 -29,13 -29,29 l 0,510.9 c 0,0 0,0 0,0 l 0,25.6 c 0,9.4 7.6,17.1 17.1,17.1 l 377.4,0 c -1.5,33.6 -9,101 -43.8,115.8 0,0 -13.5,12.6 24.3,12.6 l 64.8,0 89.4,0 64.8,0 c 37.9,0 24.3,-12.6 24.3,-12.6 C 593.4,828.1 586,760.7 584.5,727.1 l 388.7,0 c 9.5,0 16.7,-7.6 16.7,-17.1 l 0,-24.8 c 0,-0.3 0.1,-0.5 0.1,-0.8 l 0,-510.9 c 0,-16 -13,-29 -29,-29 z m -479.6,577 c 0,-8 6.5,-14.4 14.4,-14.4 8,0 14.4,6.5 14.4,14.4 0,7.9 -6.5,14.4 -14.4,14.4 -7.9,0 -14.4,-6.5 -14.4,-14.4 z m 479.6,-33.9 -922,0 0,-511.8 c 0,-2.3 1.8,-4.1 4.1,-4.1 l 913.8,0 c 2.3,0 4.1,1.8 4.1,4.1 l 0,511.8 z"
       id="path8"
       inkscape:connector-curvature="0" /></g></svg>