<?xml version="1.0" encoding="UTF-8" standalone="no"?>
<!-- Svg Vector Icons : http://www.onlinewebfonts.com/icon -->

<svg
   xmlns:dc="http://purl.org/dc/elements/1.1/"
   xmlns:cc="http://creativecommons.org/ns#"
   xmlns:rdf="http://www.w3.org/1999/02/22-rdf-syntax-ns#"
   xmlns:svg="http://www.w3.org/2000/svg"
   xmlns="http://www.w3.org/2000/svg"
   xmlns:sodipodi="http://sodipodi.sourceforge.net/DTD/sodipodi-0.dtd"
   xmlns:inkscape="http://www.inkscape.org/namespaces/inkscape"
   version="1.1"
   x="0px"
   y="0px"
   viewBox="0 0 986 585"
   enable-background="new 0 0 1000 1000"
   xml:space="preserve"
   id="svg2"
   inkscape:version="0.91 r13725"
   sodipodi:docname="screen.svg"
   width="986"
   height="585"><defs
     id="defs12" /><sodipodi:namedview
     pagecolor="#ffffff"
     bordercolor="#666666"
     borderopacity="1"
     objecttolerance="10"
     gridtolerance="10"
     guidetolerance="10"
     inkscape:pageopacity="0"
     inkscape:pageshadow="2"
     inkscape:window-width="1855"
     inkscape:window-height="1056"
     id="namedview10"
     showgrid="false"
     inkscape:zoom="0.6675088"
     inkscape:cx="726.06975"
     inkscape:cy="154.65965"
     inkscape:window-x="1985"
     inkscape:window-y="24"
     inkscape:window-maximized="1"
     inkscape:current-layer="svg2" /><metadata
     id="metadata4"> Svg Vector Icons : http://www.onlinewebfonts.com/icon <rdf:RDF><cc:Work
     rdf:about=""><dc:format>image/svg+xml</dc:format><dc:type
       rdf:resource="http://purl.org/dc/dcmitype/StillImage" /><dc:title></dc:title></cc:Work></rdf:RDF></metadata><path
     d="m 33,2.40039 c -16,0 -29,13 -29,29 l 0,510.90039 0,25.59961 C 4,577.30039 11.599609,585 21.099609,585 l 32.925782,0 0,-1.27734 422.048829,0 c -0.43587,-1.36716 -0.67383,-2.81848 -0.67383,-4.32227 0,-8 6.50039,-14.40039 14.40039,-14.40039 8,0 14.39844,6.50039 14.39844,14.40039 0,1.50378 -0.23601,2.95511 -0.67188,4.32227 l 463.63282,0 0,1.27734 0.0391,0 c 9.5,0 16.70117,-7.59961 16.70117,-17.09961 l 0,-24.80078 c 0,-0.3 0.0996,-0.49883 0.0996,-0.79883 L 984,31.40039 c 0,-16 -13,-29 -29,-29 l -922,0 z m 4.099609,27.19922 913.800781,0 c 2.3,0 4.09961,1.80156 4.09961,4.10156 L 955,545.5 33,545.5 33,33.70117 c 0,-2.3 1.799609,-4.10156 4.099609,-4.10156 z"
     id="path8"
     inkscape:connector-curvature="0" /></svg>