<?xml version="1.0" encoding="UTF-8" standalone="no"?>
<!-- Generator: Adobe Illustrator 16.0.0, SVG Export Plug-In . SVG Version: 6.00 Build 0)  -->

<svg
   xmlns:dc="http://purl.org/dc/elements/1.1/"
   xmlns:cc="http://creativecommons.org/ns#"
   xmlns:rdf="http://www.w3.org/1999/02/22-rdf-syntax-ns#"
   xmlns:svg="http://www.w3.org/2000/svg"
   xmlns="http://www.w3.org/2000/svg"
   xmlns:sodipodi="http://sodipodi.sourceforge.net/DTD/sodipodi-0.dtd"
   xmlns:inkscape="http://www.inkscape.org/namespaces/inkscape"
   version="1.1"
   id="Capa_1"
   x="0px"
   y="0px"
   width="299"
   height="512"
   viewBox="0 0 20.439491 35"
   xml:space="preserve"
   inkscape:version="0.91 r13725"
   sodipodi:docname="telephone.svg"><metadata
     id="metadata41"><rdf:RDF><cc:Work
         rdf:about=""><dc:format>image/svg+xml</dc:format><dc:type
           rdf:resource="http://purl.org/dc/dcmitype/StillImage" /><dc:title></dc:title></cc:Work></rdf:RDF></metadata><defs
     id="defs39" /><sodipodi:namedview
     pagecolor="#ffffff"
     bordercolor="#666666"
     borderopacity="1"
     objecttolerance="10"
     gridtolerance="10"
     guidetolerance="10"
     inkscape:pageopacity="0"
     inkscape:pageshadow="2"
     inkscape:window-width="1855"
     inkscape:window-height="1056"
     id="namedview37"
     showgrid="false"
     inkscape:zoom="0.65186406"
     inkscape:cx="326.99309"
     inkscape:cy="-57.832988"
     inkscape:window-x="1985"
     inkscape:window-y="24"
     inkscape:window-maximized="1"
     inkscape:current-layer="Capa_1" /><g
     id="g3"
     transform="translate(-7.2460915,0)"><path
       d="M 25.302,0 9.698,0 C 8.398,0 7.334,1.063 7.334,2.364 l 0,30.271 C 7.334,33.936 8.398,35 9.698,35 l 15.604,0 c 1.3,0 2.364,-1.062 2.364,-2.364 l 0,-30.272 C 27.666,1.063 26.602,0 25.302,0 Z m -10.298,1.704 4.992,0 c 0.158,0 0.286,0.128 0.286,0.287 0,0.158 -0.128,0.286 -0.286,0.286 l -4.992,0 c -0.158,0 -0.286,-0.128 -0.286,-0.286 0,-0.159 0.128,-0.287 0.286,-0.287 z M 17.5,33.818 c -0.653,0 -1.182,-0.529 -1.182,-1.183 0,-0.654 0.529,-1.182 1.182,-1.182 0.653,0 1.182,0.528 1.182,1.182 0,0.654 -0.529,1.183 -1.182,1.183 z m 8.521,-3.193 -17.042,0 0,-26.876 17.042,0 0,26.876 z"
       id="path5"
       inkscape:connector-curvature="0"
       style="fill:#333333" /></g><g
     id="g7" /><g
     id="g9" /><g
     id="g11" /><g
     id="g13" /><g
     id="g15" /><g
     id="g17" /><g
     id="g19" /><g
     id="g21" /><g
     id="g23" /><g
     id="g25" /><g
     id="g27" /><g
     id="g29" /><g
     id="g31" /><g
     id="g33" /><g
     id="g35" /></svg>